<?xml version="1.0" encoding="UTF-8" standalone="no"?>
<!-- Created with Inkscape (http://www.inkscape.org/) -->

<svg
   xmlns:dc="http://purl.org/dc/elements/1.1/"
   xmlns:cc="http://creativecommons.org/ns#"
   xmlns:rdf="http://www.w3.org/1999/02/22-rdf-syntax-ns#"
   xmlns:svg="http://www.w3.org/2000/svg"
   xmlns="http://www.w3.org/2000/svg"
   xmlns:sodipodi="http://sodipodi.sourceforge.net/DTD/sodipodi-0.dtd"
   xmlns:inkscape="http://www.inkscape.org/namespaces/inkscape"
   width="701.10144"
   height="81.807785"
   id="svg3098"
   version="1.1"
   inkscape:version="0.48.4 r9939"
   sodipodi:docname="cnrlogo.svg"
   viewbox="0 0 701.10144 81.807785">
  <defs
     id="defs3100">
    <clipPath
       clipPathUnits="userSpaceOnUse"
       id="clipPath3028">
      <path
         inkscape:connector-curvature="0"
         d="m 0,595.275 841.89,0 L 841.89,0 0,0 0,595.275 z"
         id="path3030" />
    </clipPath>
  </defs>
  <sodipodi:namedview
     id="base"
     pagecolor="#ffffff"
     bordercolor="#666666"
     borderopacity="1.0"
     inkscape:pageopacity="0.0"
     inkscape:pageshadow="2"
     inkscape:zoom="1.495297"
     inkscape:cx="425.71429"
     inkscape:cy="2.8421709e-14"
     inkscape:document-units="px"
     inkscape:current-layer="layer1"
     showgrid="false"
     fit-margin-top="0"
     fit-margin-left="0"
     fit-margin-right="0"
     fit-margin-bottom="0"
     inkscape:window-width="1920"
     inkscape:window-height="987"
     inkscape:window-x="0"
     inkscape:window-y="28"
     inkscape:window-maximized="1" />
  <metadata
     id="metadata3103">
    <rdf:RDF>
      <cc:Work
         rdf:about="">
        <dc:format>image/svg+xml</dc:format>
        <dc:type
           rdf:resource="http://purl.org/dc/dcmitype/StillImage" />
        <dc:title></dc:title>
      </cc:Work>
    </rdf:RDF>
  </metadata>
  <g
     inkscape:label="Livello 1"
     inkscape:groupmode="layer"
     id="layer1"
     transform="translate(-23.734985,-371.45829)">
    <g
       transform="matrix(1.25,0,0,-1.25,-151.25139,906.59679)"
       id="g3024">
      <g
         id="g3026"
         clip-path="url(#clipPath3028)">
        <g
           id="g3032"
           transform="translate(169.2471,369.6338)">
          <path
             inkscape:connector-curvature="0"
             d="m 0,0 c -16.156,0 -29.258,13.086 -29.258,29.25 0,16.141 13.086,29.227 29.242,29.227 l 10.875,0 0,-6.063 -10.632,0 C -12.57,52.414 -23.164,42.031 -23.164,29.25 -23.164,16.453 -12.781,6.094 0,6.094 l 24.438,0 L 24.438,0 0,0 z"
             style="fill:#0f2a52;fill-opacity:1;fill-rule:nonzero;stroke:none"
             id="path3034" />
        </g>
        <g
           id="g3036"
           transform="translate(180.1064,403.81351)">
          <path
             inkscape:connector-curvature="0"
             d="m 0,0 -10.797,0 c -2.758,0 -4.984,-2.234 -4.984,-5 l 0,-18.758 c -2.875,0.461 -4.36,1.289 -6.203,2.445 l -0.063,16.149 c 0,6.18 4.977,11.18 11.172,11.18 L 0,6.016 0,0 z"
             style="fill:#0f2a52;fill-opacity:1;fill-rule:nonzero;stroke:none"
             id="path3038" />
        </g>
        <g
           id="g3040"
           transform="translate(182.6143,419.03999)">
          <path
             inkscape:connector-curvature="0"
             d="m 0,0 c 11.023,0 20,-8.836 20.195,-19.82 l 0,-29.586 -5.992,0 0,29.656 c 0,7.797 -6.336,13.695 -14.133,13.695 l -13.437,0 c -7.781,0 -14.211,-5.859 -14.211,-13.656 l 0.055,-14.375 c -3.735,3.664 -6.04,8.305 -6.04,13.938 0,11.14 9.032,20.171 20.18,20.171 L 0,0 z"
             style="fill:#0f2a52;fill-opacity:1;fill-rule:nonzero;stroke:none"
             id="path3042" />
        </g>
      </g>
    </g>
    <g
       style="font-size:15px"
       id="text3044">
      <path
         d="m 162.49554,441.1105 0,-2.10816 c -1.73441,1.25593 -3.16975,2.16797 -4.30604,2.73613 -1.97362,0.95689 -4.2911,1.43534 -6.95244,1.43534 -4.27615,0 -7.78975,-1.37553 -10.54081,-4.12661 -2.72118,-2.72117 -4.08176,-6.21982 -4.08176,-10.49596 0,-4.2761 1.37553,-7.7897 4.12661,-10.5408 2.75107,-2.75105 6.24972,-4.12659 10.49596,-4.12662 2.48192,3e-5 4.85921,0.46353 7.13186,1.39049 1.49512,0.62799 2.87066,1.46528 4.12662,2.51185 l 0,-2.28758 c -1.22606,-0.95686 -2.49693,-1.68948 -3.81264,-2.19787 -2.21284,-0.80734 -4.69479,-1.21103 -7.44584,-1.21107 -4.8443,4e-5 -8.80645,1.54004 -11.88645,4.62002 -3.05011,3.05013 -4.57516,6.99732 -4.57515,11.84158 -1e-5,4.8443 1.54,8.80644 4.62001,11.88645 3.05009,3.0501 6.99729,4.57516 11.84159,4.57516 0.41862,0 0.82231,-0.015 1.21107,-0.0449 0.38872,0 0.74755,-0.0149 1.07651,-0.0448 2.87066,-0.26913 5.14329,-1.0167 6.81788,-2.24273 l 2.15302,-1.56991"
         style="font-size:44.85449982px;font-variant:normal;font-weight:500;font-stretch:normal;writing-mode:lr-tb;fill:#0f2a52;fill-opacity:1;fill-rule:nonzero;stroke:none;font-family:GeosansLight;-inkscape-font-specification:GeosansLight"
         id="path3155" />
      <path
         d="m 183.17348,435.32427 c -2e-5,-2.69125 -0.92701,-4.96388 -2.78097,-6.81788 -1.85401,-1.85397 -4.11168,-2.78096 -6.77303,-2.78098 -2.69128,2e-5 -4.94896,0.94196 -6.77303,2.82583 -1.85399,1.854 -2.78098,4.11168 -2.78098,6.77303 0,2.69128 0.92699,4.96391 2.78098,6.81789 1.82407,1.82408 4.08175,2.73612 6.77303,2.73612 2.69125,0 4.96388,-0.92699 6.81788,-2.78098 1.82406,-1.82408 2.7361,-4.08175 2.73612,-6.77303 m -1.79418,0 c -1e-5,2.15303 -0.76254,3.99206 -2.28758,5.51711 -1.49516,1.49515 -3.31924,2.24272 -5.47224,2.24272 -2.12313,0 -3.94721,-0.76252 -5.47225,-2.28758 -1.52506,-1.52505 -2.28759,-3.34913 -2.28758,-5.47225 -10e-6,-2.0932 0.77747,-3.91728 2.33243,-5.47225 1.52505,-1.55494 3.33418,-2.33241 5.4274,-2.33243 2.1829,2e-5 4.02193,0.76254 5.5171,2.28758 1.49513,1.49516 2.24271,3.3342 2.24272,5.5171"
         style="font-size:44.85449982px;font-variant:normal;font-weight:500;font-stretch:normal;writing-mode:lr-tb;fill:#0f2a52;fill-opacity:1;fill-rule:nonzero;stroke:none;font-family:GeosansLight;-inkscape-font-specification:GeosansLight"
         id="path3157" />
      <path
         d="m 202.10207,444.5643 0,-11.25848 c -2e-5,-2.36232 -0.61303,-4.20135 -1.83904,-5.5171 -1.22604,-1.31572 -2.99031,-1.97358 -5.29283,-1.9736 -2.72118,2e-5 -4.50041,0.82235 -5.33768,2.467 l 0,-2.24273 -1.83904,0 0,18.52491 1.83904,0 0,-11.25848 c -1e-5,-1.76426 0.46349,-3.15475 1.39049,-4.17147 0.89708,-1.01668 2.21281,-1.52503 3.94719,-1.52505 3.52854,2e-5 5.29282,1.95866 5.29283,5.87594 l 0,11.07906 1.83904,0"
         style="font-size:44.85449982px;font-variant:normal;font-weight:500;font-stretch:normal;writing-mode:lr-tb;fill:#0f2a52;fill-opacity:1;fill-rule:nonzero;stroke:none;font-family:GeosansLight;-inkscape-font-specification:GeosansLight"
         id="path3159" />
      <path
         d="m 218.87767,439.49574 c -1e-5,-1.67456 -0.64293,-3.00524 -1.92874,-3.99205 -0.32895,-0.23921 -0.82235,-0.50834 -1.4802,-0.80738 -0.65788,-0.32892 -1.49516,-0.67281 -2.51185,-1.03165 -1.16623,-0.38873 -2.01846,-0.79242 -2.55671,-1.21107 -0.65787,-0.53825 -0.9868,-1.22601 -0.9868,-2.06331 0,-1.88387 1.0765,-2.82582 3.22953,-2.82583 1.58485,10e-6 2.88562,0.50836 3.90234,1.52505 l 1.34563,-1.16622 c -1.43535,-1.43532 -3.18468,-2.153 -5.24797,-2.15301 -1.49516,1e-5 -2.70623,0.46351 -3.63322,1.39048 -0.9569,0.89711 -1.43535,1.97362 -1.43534,3.22953 -1e-5,1.46526 0.47844,2.58662 1.43534,3.36409 0.65786,0.53826 1.73437,1.07651 3.22952,1.61476 0.80738,0.29904 1.48019,0.56816 2.01846,0.80738 0.56814,0.20933 1.00174,0.4037 1.30078,0.58311 0.98679,0.77748 1.48018,1.68952 1.4802,2.73612 -2e-5,2.39224 -1.40546,3.58836 -4.21633,3.58836 -1.28583,0 -2.30253,-0.28407 -3.0501,-0.85223 -0.71768,-0.50835 -1.33069,-1.22602 -1.83904,-2.15302 l -1.5699,0.94195 c 1.43534,2.60156 3.58835,3.90234 6.45904,3.90234 1.67456,0 3.1099,-0.50835 4.30604,-1.52506 1.1662,-0.98679 1.74931,-2.28757 1.74932,-3.90234"
         style="font-size:44.85449982px;font-variant:normal;font-weight:500;font-stretch:normal;writing-mode:lr-tb;fill:#0f2a52;fill-opacity:1;fill-rule:nonzero;stroke:none;font-family:GeosansLight;-inkscape-font-specification:GeosansLight"
         id="path3161" />
      <path
         d="m 225.60584,421.23996 c -0.23923,-0.98677 -0.73263,-1.48017 -1.4802,-1.4802 -0.9868,0.17944 -1.4802,0.67284 -1.4802,1.4802 0.0299,0.44857 0.17942,0.8074 0.44855,1.07651 0.35883,0.26915 0.70271,0.40371 1.03165,0.40369 0.98679,2e-5 1.48019,-0.49338 1.4802,-1.4802 m -0.58311,23.32434 0,-18.52491 -1.83903,0 0,18.52491 1.83903,0"
         style="font-size:44.85449982px;font-variant:normal;font-weight:500;font-stretch:normal;writing-mode:lr-tb;fill:#0f2a52;fill-opacity:1;fill-rule:nonzero;stroke:none;font-family:GeosansLight;-inkscape-font-specification:GeosansLight"
         id="path3163" />
      <path
         d="m 248.52649,444.16061 0,-18.12122 -1.83903,0 0,3.22953 c -1.97361,-2.33242 -4.44061,-3.49864 -7.40099,-3.49865 -2.69128,1e-5 -4.96391,0.92701 -6.81789,2.78097 -1.82408,1.8241 -2.73612,4.08178 -2.73612,6.77303 0,2.69128 0.92699,4.96391 2.78098,6.81789 1.82408,1.82408 4.08175,2.73612 6.77303,2.73612 2.99028,0 5.45728,-1.16621 7.40099,-3.49865 l 0,2.73613 c -2e-5,2.30252 -0.64293,4.0967 -1.92874,5.38254 -1.25594,1.28582 -3.03517,1.92873 -5.33769,1.92874 -1.70448,-10e-6 -3.16972,-0.28409 -4.39574,-0.85224 -1.55496,-0.71767 -2.4969,-1.80913 -2.82583,-3.27437 l -1.83904,0 c 0.9868,3.97709 4.007,5.96563 9.06061,5.96564 2.72116,-1e-5 4.91903,-0.83729 6.59361,-2.51185 1.67455,-1.67457 2.51183,-3.87244 2.51185,-6.59361 m -1.48019,-8.83634 c -2e-5,2.15303 -0.76255,3.99206 -2.28758,5.51711 -1.49517,1.49515 -3.31925,2.24272 -5.47225,2.24272 -2.12312,0 -3.94721,-0.76252 -5.47225,-2.28758 -1.52506,-1.52505 -2.28758,-3.34913 -2.28758,-5.47225 0,-2.153 0.76252,-3.99203 2.28758,-5.5171 1.49514,-1.49513 3.31922,-2.24271 5.47225,-2.24272 2.1231,10e-6 3.94718,0.76254 5.47225,2.28757 1.52503,1.52507 2.28756,3.34915 2.28758,5.47225"
         style="font-size:44.85449982px;font-variant:normal;font-weight:500;font-stretch:normal;writing-mode:lr-tb;fill:#0f2a52;fill-opacity:1;fill-rule:nonzero;stroke:none;font-family:GeosansLight;-inkscape-font-specification:GeosansLight"
         id="path3165" />
      <path
         d="m 256.28632,444.5643 0,-33.19233 -1.79418,0 0,33.19233 1.79418,0"
         style="font-size:44.85449982px;font-variant:normal;font-weight:500;font-stretch:normal;writing-mode:lr-tb;fill:#0f2a52;fill-opacity:1;fill-rule:nonzero;stroke:none;font-family:GeosansLight;-inkscape-font-specification:GeosansLight"
         id="path3167" />
      <path
         d="m 263.05931,421.23996 c -0.23923,-0.98677 -0.73262,-1.48017 -1.48019,-1.4802 -0.98681,0.17944 -1.48021,0.67284 -1.4802,1.4802 0.0299,0.44857 0.17941,0.8074 0.44854,1.07651 0.35883,0.26915 0.70272,0.40371 1.03166,0.40369 0.98679,2e-5 1.48019,-0.49338 1.48019,-1.4802 m -0.5831,23.32434 0,-18.52491 -1.83904,0 0,18.52491 1.83904,0"
         style="font-size:44.85449982px;font-variant:normal;font-weight:500;font-stretch:normal;writing-mode:lr-tb;fill:#0f2a52;fill-opacity:1;fill-rule:nonzero;stroke:none;font-family:GeosansLight;-inkscape-font-specification:GeosansLight"
         id="path3169" />
      <path
         d="m 286.29395,435.32427 c -2e-5,-2.69125 -0.92701,-4.96388 -2.78098,-6.81788 -1.854,-1.85397 -4.11167,-2.78096 -6.77303,-2.78098 -2.69127,2e-5 -4.94895,0.94196 -6.77303,2.82583 -1.85398,1.854 -2.78098,4.11168 -2.78097,6.77303 -1e-5,2.69128 0.92699,4.96391 2.78097,6.81789 1.82408,1.82408 4.08176,2.73612 6.77303,2.73612 2.69126,0 4.96389,-0.92699 6.81789,-2.78098 1.82406,-1.82408 2.7361,-4.08175 2.73612,-6.77303 m -1.79418,0 c -2e-5,2.15303 -0.76254,3.99206 -2.28758,5.51711 -1.49516,1.49515 -3.31924,2.24272 -5.47225,2.24272 -2.12312,0 -3.9472,-0.76252 -5.47225,-2.28758 -1.52505,-1.52505 -2.28758,-3.34913 -2.28757,-5.47225 -10e-6,-2.0932 0.77747,-3.91728 2.33243,-5.47225 1.52505,-1.55494 3.33417,-2.33241 5.42739,-2.33243 2.18291,2e-5 4.02194,0.76254 5.51711,2.28758 1.49513,1.49516 2.2427,3.3342 2.24272,5.5171"
         style="font-size:44.85449982px;font-variant:normal;font-weight:500;font-stretch:normal;writing-mode:lr-tb;fill:#0f2a52;fill-opacity:1;fill-rule:nonzero;stroke:none;font-family:GeosansLight;-inkscape-font-specification:GeosansLight"
         id="path3171" />
      <path
         d="m 328.59176,445.10255 0,-32.56436 -1.83904,0 0,27.80979 -23.90744,-28.03406 0,32.25038 1.79418,0 0,-27.18183 23.9523,27.72008"
         style="font-size:44.85449982px;font-variant:normal;font-weight:500;font-stretch:normal;writing-mode:lr-tb;fill:#0f2a52;fill-opacity:1;fill-rule:nonzero;stroke:none;font-family:GeosansLight;-inkscape-font-specification:GeosansLight"
         id="path3173" />
      <path
         d="m 351.82641,444.5643 0,-18.52491 -1.83904,0 0,3.22953 c -1.97361,-2.33242 -4.44061,-3.49864 -7.40099,-3.49865 -2.69128,1e-5 -4.9639,0.92701 -6.81788,2.78097 -1.82409,1.8241 -2.73613,4.08178 -2.73613,6.77303 0,2.69128 0.92699,4.96391 2.78098,6.81789 1.82408,1.82408 4.08175,2.73612 6.77303,2.73612 2.99029,0 5.45728,-1.16621 7.40099,-3.49865 l 0,3.18467 1.83904,0 m -1.4802,-9.24003 c -2e-5,2.15303 -0.76255,3.99206 -2.28758,5.51711 -1.49517,1.49515 -3.31925,2.24272 -5.47225,2.24272 -2.12312,0 -3.9472,-0.76252 -5.47225,-2.28758 -1.52506,-1.52505 -2.28758,-3.34913 -2.28758,-5.47225 0,-2.153 0.76252,-3.99203 2.28758,-5.5171 1.49514,-1.49513 3.31922,-2.24271 5.47225,-2.24272 2.1231,10e-6 3.94718,0.76254 5.47225,2.28757 1.52503,1.52507 2.28756,3.34915 2.28758,5.47225"
         style="font-size:44.85449982px;font-variant:normal;font-weight:500;font-stretch:normal;writing-mode:lr-tb;fill:#0f2a52;fill-opacity:1;fill-rule:nonzero;stroke:none;font-family:GeosansLight;-inkscape-font-specification:GeosansLight"
         id="path3175" />
      <path
         d="m 373.35653,426.03939 -16.19247,0 0,1.74933 12.46955,0 -13.23208,16.77558 16.73073,0 0,-1.83903 -12.91809,0 13.14236,-16.68588"
         style="font-size:44.85449982px;font-variant:normal;font-weight:500;font-stretch:normal;writing-mode:lr-tb;fill:#0f2a52;fill-opacity:1;fill-rule:nonzero;stroke:none;font-family:GeosansLight;-inkscape-font-specification:GeosansLight"
         id="path3177" />
      <path
         d="m 380.53325,421.23996 c -0.23923,-0.98677 -0.73263,-1.48017 -1.4802,-1.4802 -0.9868,0.17944 -1.4802,0.67284 -1.48019,1.4802 0.0299,0.44857 0.17941,0.8074 0.44854,1.07651 0.35883,0.26915 0.70272,0.40371 1.03165,0.40369 0.9868,2e-5 1.4802,-0.49338 1.4802,-1.4802 m -0.58311,23.32434 0,-18.52491 -1.83903,0 0,18.52491 1.83903,0"
         style="font-size:44.85449982px;font-variant:normal;font-weight:500;font-stretch:normal;writing-mode:lr-tb;fill:#0f2a52;fill-opacity:1;fill-rule:nonzero;stroke:none;font-family:GeosansLight;-inkscape-font-specification:GeosansLight"
         id="path3179" />
      <path
         d="m 403.76789,435.32427 c -2e-5,-2.69125 -0.92701,-4.96388 -2.78098,-6.81788 -1.854,-1.85397 -4.11168,-2.78096 -6.77303,-2.78098 -2.69128,2e-5 -4.94895,0.94196 -6.77303,2.82583 -1.85399,1.854 -2.78098,4.11168 -2.78098,6.77303 0,2.69128 0.92699,4.96391 2.78098,6.81789 1.82408,1.82408 4.08175,2.73612 6.77303,2.73612 2.69126,0 4.96388,-0.92699 6.81789,-2.78098 1.82406,-1.82408 2.7361,-4.08175 2.73612,-6.77303 m -1.79418,0 c -2e-5,2.15303 -0.76254,3.99206 -2.28758,5.51711 -1.49516,1.49515 -3.31925,2.24272 -5.47225,2.24272 -2.12312,0 -3.9472,-0.76252 -5.47225,-2.28758 -1.52505,-1.52505 -2.28758,-3.34913 -2.28758,-5.47225 0,-2.0932 0.77748,-3.91728 2.33244,-5.47225 1.52504,-1.55494 3.33417,-2.33241 5.42739,-2.33243 2.18291,2e-5 4.02194,0.76254 5.51711,2.28758 1.49513,1.49516 2.2427,3.3342 2.24272,5.5171"
         style="font-size:44.85449982px;font-variant:normal;font-weight:500;font-stretch:normal;writing-mode:lr-tb;fill:#0f2a52;fill-opacity:1;fill-rule:nonzero;stroke:none;font-family:GeosansLight;-inkscape-font-specification:GeosansLight"
         id="path3181" />
      <path
         d="m 422.6965,444.5643 0,-11.25848 c -1e-5,-2.36232 -0.61302,-4.20135 -1.83903,-5.5171 -1.22604,-1.31572 -2.99031,-1.97358 -5.29283,-1.9736 -2.72118,2e-5 -4.50041,0.82235 -5.33769,2.467 l 0,-2.24273 -1.83903,0 0,18.52491 1.83903,0 0,-11.25848 c 0,-1.76426 0.46349,-3.15475 1.39049,-4.17147 0.89708,-1.01668 2.21282,-1.52503 3.9472,-1.52505 3.52854,2e-5 5.29281,1.95866 5.29283,5.87594 l 0,11.07906 1.83903,0"
         style="font-size:44.85449982px;font-variant:normal;font-weight:500;font-stretch:normal;writing-mode:lr-tb;fill:#0f2a52;fill-opacity:1;fill-rule:nonzero;stroke:none;font-family:GeosansLight;-inkscape-font-specification:GeosansLight"
         id="path3183" />
      <path
         d="m 446.02083,444.5643 0,-18.52491 -1.83903,0 0,3.22953 c -1.97362,-2.33242 -4.44061,-3.49864 -7.40099,-3.49865 -2.69128,1e-5 -4.96391,0.92701 -6.81789,2.78097 -1.82408,1.8241 -2.73612,4.08178 -2.73612,6.77303 0,2.69128 0.92699,4.96391 2.78098,6.81789 1.82407,1.82408 4.08175,2.73612 6.77303,2.73612 2.99028,0 5.45728,-1.16621 7.40099,-3.49865 l 0,3.18467 1.83903,0 m -1.48019,-9.24003 c -2e-5,2.15303 -0.76255,3.99206 -2.28758,5.51711 -1.49517,1.49515 -3.31925,2.24272 -5.47225,2.24272 -2.12313,0 -3.94721,-0.76252 -5.47225,-2.28758 -1.52506,-1.52505 -2.28759,-3.34913 -2.28758,-5.47225 -1e-5,-2.153 0.76252,-3.99203 2.28758,-5.5171 1.49514,-1.49513 3.31922,-2.24271 5.47225,-2.24272 2.1231,10e-6 3.94718,0.76254 5.47225,2.28757 1.52503,1.52507 2.28756,3.34915 2.28758,5.47225"
         style="font-size:44.85449982px;font-variant:normal;font-weight:500;font-stretch:normal;writing-mode:lr-tb;fill:#0f2a52;fill-opacity:1;fill-rule:nonzero;stroke:none;font-family:GeosansLight;-inkscape-font-specification:GeosansLight"
         id="path3185" />
      <path
         d="m 453.78066,444.5643 0,-33.19233 -1.79418,0 0,33.19233 1.79418,0"
         style="font-size:44.85449982px;font-variant:normal;font-weight:500;font-stretch:normal;writing-mode:lr-tb;fill:#0f2a52;fill-opacity:1;fill-rule:nonzero;stroke:none;font-family:GeosansLight;-inkscape-font-specification:GeosansLight"
         id="path3187" />
      <path
         d="m 477.82267,434.92058 c -2e-5,-2.72116 -0.91206,-4.93398 -2.73613,-6.63846 -1.79419,-1.70446 -4.06682,-2.55669 -6.81788,-2.55671 -2.78099,2e-5 -5.08352,0.91206 -6.90759,2.73613 -1.79418,1.79419 -2.69127,4.08177 -2.69127,6.86273 0,2.75109 0.91204,5.03866 2.73612,6.86274 1.79418,1.82409 4.08175,2.73613 6.86274,2.73613 1.16621,0 2.21281,-0.14952 3.13982,-0.44855 2.42212,-0.77748 4.2163,-2.27262 5.38254,-4.48545 l -1.65962,-0.76252 c -1.01672,1.64466 -2.16798,2.73612 -3.4538,3.27437 -1.01671,0.41865 -2.15303,0.62797 -3.40894,0.62797 -2.45205,0 -4.3808,-0.74758 -5.78623,-2.24273 -1.34564,-1.46524 -2.01846,-3.45379 -2.01845,-5.96565 l 17.35869,0 m -2.06331,-1.74932 -15.02626,0 c 1.19612,-3.76777 3.70797,-5.65165 7.53556,-5.65167 1.82407,2e-5 3.43883,0.50837 4.84429,1.52505 1.46523,1.04662 2.34736,2.42216 2.64641,4.12662"
         style="font-size:44.85449982px;font-variant:normal;font-weight:500;font-stretch:normal;writing-mode:lr-tb;fill:#0f2a52;fill-opacity:1;fill-rule:nonzero;stroke:none;font-family:GeosansLight;-inkscape-font-specification:GeosansLight"
         id="path3189" />
      <path
         d="m 511.41868,444.5643 0,-33.19233 -1.83903,0 0,18.03151 c -2.06333,-2.42213 -4.57518,-3.6332 -7.53556,-3.63321 -2.69128,1e-5 -4.9639,0.92701 -6.81788,2.78097 -1.82409,1.8241 -2.73613,4.08178 -2.73613,6.77303 0,2.69128 0.92699,4.96391 2.78098,6.81789 1.82408,1.82408 4.08175,2.73612 6.77303,2.73612 3.05009,0 5.56194,-1.21107 7.53556,-3.63321 l 0,3.31923 1.83903,0 m -1.61476,-9.24003 c -2e-5,2.15303 -0.76254,3.99206 -2.28758,5.51711 -1.49516,1.49515 -3.31925,2.24272 -5.47225,2.24272 -2.12312,0 -3.9472,-0.76252 -5.47225,-2.28758 -1.52505,-1.52505 -2.28758,-3.34913 -2.28758,-5.47225 0,-2.153 0.76253,-3.99203 2.28758,-5.5171 1.49515,-1.49513 3.31923,-2.24271 5.47225,-2.24272 2.1231,10e-6 3.94718,0.76254 5.47225,2.28757 1.52504,1.52507 2.28756,3.34915 2.28758,5.47225"
         style="font-size:44.85449982px;font-variant:normal;font-weight:500;font-stretch:normal;writing-mode:lr-tb;fill:#0f2a52;fill-opacity:1;fill-rule:nonzero;stroke:none;font-family:GeosansLight;-inkscape-font-specification:GeosansLight"
         id="path3191" />
      <path
         d="m 534.60853,434.92058 c -2e-5,-2.72116 -0.91206,-4.93398 -2.73613,-6.63846 -1.79419,-1.70446 -4.06682,-2.55669 -6.81788,-2.55671 -2.78099,2e-5 -5.08352,0.91206 -6.90759,2.73613 -1.79419,1.79419 -2.69128,4.08177 -2.69127,6.86273 -10e-6,2.75109 0.91204,5.03866 2.73612,6.86274 1.79417,1.82409 4.08175,2.73613 6.86274,2.73613 1.1662,0 2.21281,-0.14952 3.13981,-0.44855 2.42213,-0.77748 4.21631,-2.27262 5.38254,-4.48545 l -1.65961,-0.76252 c -1.01672,1.64466 -2.16799,2.73612 -3.4538,3.27437 -1.01671,0.41865 -2.15303,0.62797 -3.40894,0.62797 -2.45206,0 -4.3808,-0.74758 -5.78623,-2.24273 -1.34564,-1.46524 -2.01846,-3.45379 -2.01845,-5.96565 l 17.35869,0 m -2.06331,-1.74932 -15.02626,0 c 1.19612,-3.76777 3.70797,-5.65165 7.53556,-5.65167 1.82407,2e-5 3.43883,0.50837 4.84428,1.52505 1.46523,1.04662 2.34737,2.42216 2.64642,4.12662"
         style="font-size:44.85449982px;font-variant:normal;font-weight:500;font-stretch:normal;writing-mode:lr-tb;fill:#0f2a52;fill-opacity:1;fill-rule:nonzero;stroke:none;font-family:GeosansLight;-inkscape-font-specification:GeosansLight"
         id="path3193" />
      <path
         d="m 541.15722,444.5643 0,-33.19233 -1.79418,0 0,33.19233 1.79418,0"
         style="font-size:44.85449982px;font-variant:normal;font-weight:500;font-stretch:normal;writing-mode:lr-tb;fill:#0f2a52;fill-opacity:1;fill-rule:nonzero;stroke:none;font-family:GeosansLight;-inkscape-font-specification:GeosansLight"
         id="path3195" />
      <path
         d="m 546.89861,444.5643 0,-33.19233 -1.79418,0 0,33.19233 1.79418,0"
         style="font-size:44.85449982px;font-variant:normal;font-weight:500;font-stretch:normal;writing-mode:lr-tb;fill:#0f2a52;fill-opacity:1;fill-rule:nonzero;stroke:none;font-family:GeosansLight;-inkscape-font-specification:GeosansLight"
         id="path3197" />
      <path
         d="m 570.94062,434.92058 c -2e-5,-2.72116 -0.91206,-4.93398 -2.73612,-6.63846 -1.7942,-1.70446 -4.06683,-2.55669 -6.81789,-2.55671 -2.78099,2e-5 -5.08351,0.91206 -6.90759,2.73613 -1.79418,1.79419 -2.69127,4.08177 -2.69127,6.86273 0,2.75109 0.91204,5.03866 2.73612,6.86274 1.79418,1.82409 4.08175,2.73613 6.86274,2.73613 1.16621,0 2.21281,-0.14952 3.13982,-0.44855 2.42212,-0.77748 4.2163,-2.27262 5.38254,-4.48545 l -1.65962,-0.76252 c -1.01672,1.64466 -2.16798,2.73612 -3.4538,3.27437 -1.01671,0.41865 -2.15303,0.62797 -3.40894,0.62797 -2.45205,0 -4.38079,-0.74758 -5.78623,-2.24273 -1.34564,-1.46524 -2.01846,-3.45379 -2.01845,-5.96565 l 17.35869,0 m -2.06331,-1.74932 -15.02625,0 c 1.19611,-3.76777 3.70796,-5.65165 7.53555,-5.65167 1.82407,2e-5 3.43883,0.50837 4.84429,1.52505 1.46523,1.04662 2.34736,2.42216 2.64641,4.12662"
         style="font-size:44.85449982px;font-variant:normal;font-weight:500;font-stretch:normal;writing-mode:lr-tb;fill:#0f2a52;fill-opacity:1;fill-rule:nonzero;stroke:none;font-family:GeosansLight;-inkscape-font-specification:GeosansLight"
         id="path3199" />
      <path
         d="m 604.67117,444.5643 -10.27168,-16.01306 c 1.28581,2e-5 2.46698,-0.14949 3.5435,-0.44854 1.07649,-0.32892 2.00349,-0.82232 2.78098,-1.4802 0.80736,-0.65785 1.42037,-1.49513 1.83903,-2.51185 0.44853,-1.01668 0.6728,-2.22775 0.67282,-3.63322 -2e-5,-1.2858 -0.23924,-2.42211 -0.71767,-3.40894 -0.44856,-0.98677 -1.06157,-1.8091 -1.83903,-2.467 -0.7775,-0.68773 -1.70449,-1.19608 -2.78098,-1.52505 -1.07652,-0.3588 -2.21284,-0.53822 -3.40895,-0.53825 l -7.40099,0 0,32.02611 1.79418,0 0,-16.01306 3.4538,0 10.18197,16.01306 2.15302,0 m -3.31924,-24.13172 c -1e-5,2.03343 -0.59807,3.58838 -1.79418,4.66487 -1.16623,1.07652 -2.70623,1.61478 -4.62001,1.61476 l -6.05536,0 0,-12.33499 5.56196,0 c 0.95688,3e-5 1.85397,0.1346 2.69127,0.40369 0.83727,0.23926 1.56989,0.61304 2.19787,1.12137 0.62795,0.47847 1.12135,1.10643 1.4802,1.88388 0.35882,0.74761 0.53824,1.62974 0.53825,2.64642"
         style="font-size:44.85449982px;font-variant:normal;font-weight:500;font-stretch:normal;writing-mode:lr-tb;fill:#0f2a52;fill-opacity:1;fill-rule:nonzero;stroke:none;font-family:GeosansLight;-inkscape-font-specification:GeosansLight"
         id="path3201" />
      <path
         d="m 611.08538,421.23996 c -0.23923,-0.98677 -0.73263,-1.48017 -1.4802,-1.4802 -0.9868,0.17944 -1.4802,0.67284 -1.4802,1.4802 0.0299,0.44857 0.17941,0.8074 0.44854,1.07651 0.35884,0.26915 0.70272,0.40371 1.03166,0.40369 0.98679,2e-5 1.48019,-0.49338 1.4802,-1.4802 m -0.58311,23.32434 0,-18.52491 -1.83904,0 0,18.52491 1.83904,0"
         style="font-size:44.85449982px;font-variant:normal;font-weight:500;font-stretch:normal;writing-mode:lr-tb;fill:#0f2a52;fill-opacity:1;fill-rule:nonzero;stroke:none;font-family:GeosansLight;-inkscape-font-specification:GeosansLight"
         id="path3203" />
      <path
         d="m 631.00078,443.26352 0,-2.28758 c -1.61478,1.43535 -3.49866,2.15302 -5.65167,2.15302 -2.27263,0 -4.14157,-0.73262 -5.60681,-2.19787 -1.46525,-1.46525 -2.19787,-3.33418 -2.19787,-5.60682 0,-2.30252 0.73262,-4.1864 2.19787,-5.65166 1.43534,-1.43533 3.30427,-2.153 5.60681,-2.15302 1.01669,2e-5 2.0932,0.19439 3.22953,0.58311 l 1.25592,0.67282 1.16622,0.76252 0,-2.19787 c -1.40546,-1.07649 -3.28934,-1.61474 -5.65167,-1.61476 -2.75108,2e-5 -5.03866,0.91206 -6.86273,2.73613 -1.82409,1.82409 -2.73613,4.11167 -2.73613,6.86273 0,2.75109 0.91204,5.03866 2.73613,6.86274 1.82407,1.82409 4.11165,2.73613 6.86273,2.73613 2.0932,0 3.97709,-0.55321 5.65167,-1.65962"
         style="font-size:44.85449982px;font-variant:normal;font-weight:500;font-stretch:normal;writing-mode:lr-tb;fill:#0f2a52;fill-opacity:1;fill-rule:nonzero;stroke:none;font-family:GeosansLight;-inkscape-font-specification:GeosansLight"
         id="path3205" />
      <path
         d="m 651.31989,434.92058 c -2e-5,-2.72116 -0.91206,-4.93398 -2.73612,-6.63846 -1.7942,-1.70446 -4.06682,-2.55669 -6.81789,-2.55671 -2.78098,2e-5 -5.08351,0.91206 -6.90759,2.73613 -1.79418,1.79419 -2.69127,4.08177 -2.69127,6.86273 0,2.75109 0.91204,5.03866 2.73613,6.86274 1.79417,1.82409 4.08175,2.73613 6.86273,2.73613 1.16621,0 2.21281,-0.14952 3.13982,-0.44855 2.42213,-0.77748 4.2163,-2.27262 5.38254,-4.48545 l -1.65962,-0.76252 c -1.01672,1.64466 -2.16798,2.73612 -3.45379,3.27437 -1.01672,0.41865 -2.15303,0.62797 -3.40895,0.62797 -2.45205,0 -4.38079,-0.74758 -5.78623,-2.24273 -1.34564,-1.46524 -2.01845,-3.45379 -2.01845,-5.96565 l 17.35869,0 m -2.0633,-1.74932 -15.02626,0 c 1.19611,-3.76777 3.70796,-5.65165 7.53555,-5.65167 1.82407,2e-5 3.43883,0.50837 4.84429,1.52505 1.46523,1.04662 2.34737,2.42216 2.64642,4.12662"
         style="font-size:44.85449982px;font-variant:normal;font-weight:500;font-stretch:normal;writing-mode:lr-tb;fill:#0f2a52;fill-opacity:1;fill-rule:nonzero;stroke:none;font-family:GeosansLight;-inkscape-font-specification:GeosansLight"
         id="path3207" />
      <path
         d="m 665.31449,427.25046 c -0.74759,-0.53823 -1.4204,-0.91202 -2.01845,-1.12136 -0.59807,-0.2093 -1.3606,-0.31396 -2.28758,-0.31398 -0.74758,2e-5 -1.43535,0.2841 -2.06331,0.85224 -0.62797,0.56817 -1.13632,1.19613 -1.52505,1.88388 l 0,-2.51185 -1.83904,0 0,18.52491 1.83904,0 0,-12.20042 c -1e-5,-0.47844 0.0897,-1.00174 0.26912,-1.56991 0.20932,-0.56814 0.47845,-1.07649 0.80739,-1.52505 0.32892,-0.47844 0.71766,-0.86717 1.16621,-1.16622 0.44854,-0.32892 0.92699,-0.49338 1.43535,-0.4934 0.59805,2e-5 1.1662,0.10468 1.70447,0.31398 0.53824,0.20934 1.04659,0.49342 1.52505,0.85224 l 0.9868,-1.52506"
         style="font-size:44.85449982px;font-variant:normal;font-weight:500;font-stretch:normal;writing-mode:lr-tb;fill:#0f2a52;fill-opacity:1;fill-rule:nonzero;stroke:none;font-family:GeosansLight;-inkscape-font-specification:GeosansLight"
         id="path3209" />
      <path
         d="m 682.58348,443.26352 0,-2.28758 c -1.61477,1.43535 -3.49866,2.15302 -5.65166,2.15302 -2.27264,0 -4.14158,-0.73262 -5.60682,-2.19787 -1.46525,-1.46525 -2.19787,-3.33418 -2.19787,-5.60682 0,-2.30252 0.73262,-4.1864 2.19787,-5.65166 1.43534,-1.43533 3.30428,-2.153 5.60682,-2.15302 1.01669,2e-5 2.09319,0.19439 3.22952,0.58311 l 1.25593,0.67282 1.16621,0.76252 0,-2.19787 c -1.40545,-1.07649 -3.28934,-1.61474 -5.65166,-1.61476 -2.75109,2e-5 -5.03867,0.91206 -6.86274,2.73613 -1.82409,1.82409 -2.73613,4.11167 -2.73613,6.86273 0,2.75109 0.91204,5.03866 2.73613,6.86274 1.82407,1.82409 4.11165,2.73613 6.86274,2.73613 2.09319,0 3.97708,-0.55321 5.65166,-1.65962"
         style="font-size:44.85449982px;font-variant:normal;font-weight:500;font-stretch:normal;writing-mode:lr-tb;fill:#0f2a52;fill-opacity:1;fill-rule:nonzero;stroke:none;font-family:GeosansLight;-inkscape-font-specification:GeosansLight"
         id="path3211" />
      <path
         d="m 701.69149,444.60916 0,-11.34819 c -2e-5,-4.99379 -2.43711,-7.49069 -7.31129,-7.4907 -2.57166,1e-5 -4.41069,0.91205 -5.5171,2.73612 l 0,-17.13442 -1.83903,0 0,33.19233 1.83903,0 0,-12.06586 c 0,-1.49514 0.5532,-2.69126 1.65962,-3.58836 1.0765,-0.89707 2.36233,-1.34562 3.85748,-1.34563 3.64816,10e-6 5.47224,1.95866 5.47225,5.87593 l 0,11.16878 1.83904,0"
         style="font-size:44.85449982px;font-variant:normal;font-weight:500;font-stretch:normal;writing-mode:lr-tb;fill:#0f2a52;fill-opacity:1;fill-rule:nonzero;stroke:none;font-family:GeosansLight;-inkscape-font-specification:GeosansLight"
         id="path3213" />
      <path
         d="m 724.83643,434.92058 c -2e-5,-2.72116 -0.91206,-4.93398 -2.73612,-6.63846 -1.7942,-1.70446 -4.06682,-2.55669 -6.81789,-2.55671 -2.78098,2e-5 -5.08351,0.91206 -6.90759,2.73613 -1.79418,1.79419 -2.69127,4.08177 -2.69127,6.86273 0,2.75109 0.91204,5.03866 2.73613,6.86274 1.79417,1.82409 4.08175,2.73613 6.86273,2.73613 1.16621,0 2.21281,-0.14952 3.13982,-0.44855 2.42213,-0.77748 4.2163,-2.27262 5.38254,-4.48545 l -1.65962,-0.76252 c -1.01672,1.64466 -2.16798,2.73612 -3.45379,3.27437 -1.01672,0.41865 -2.15303,0.62797 -3.40895,0.62797 -2.45205,0 -4.38079,-0.74758 -5.78623,-2.24273 -1.34564,-1.46524 -2.01845,-3.45379 -2.01845,-5.96565 l 17.35869,0 m -2.0633,-1.74932 -15.02626,0 c 1.19611,-3.76777 3.70796,-5.65165 7.53555,-5.65167 1.82407,2e-5 3.43883,0.50837 4.84429,1.52505 1.46523,1.04662 2.34737,2.42216 2.64642,4.12662"
         style="font-size:44.85449982px;font-variant:normal;font-weight:500;font-stretch:normal;writing-mode:lr-tb;fill:#0f2a52;fill-opacity:1;fill-rule:nonzero;stroke:none;font-family:GeosansLight;-inkscape-font-specification:GeosansLight"
         id="path3215" />
    </g>
  </g>
</svg>
