<svg height="512pt" viewBox="0 0 512 512" width="512pt" xmlns="http://www.w3.org/2000/svg"><path d="m512 256c0 141.386719-114.613281 256-256 256s-256-114.613281-256-256 114.613281-256 256-256 256 114.613281 256 256zm0 0" fill="#ffd400"/><path d="m512 256c0-10.902344-.6875-21.644531-2.007812-32.191406l-112.945313-112.945313-297.46875 82.019531 83.617187 83.613282-51.660156 19.925781 69.441406 69.304687-101.398437 32.574219 109.367187 109.367188c15.253907 2.835937 30.980469 4.332031 47.054688 4.332031 141.386719 0 256-114.613281 256-256zm0 0" fill="#fdba12"/><path d="m375.167969 407h-256.203125c-14.339844 0-25.964844-11.625-25.964844-25.960938v-50.785156c0-14.339844 11.625-25.964844 25.960938-25.964844h256.203124c14.339844 0 25.964844 11.625 25.964844 25.964844v50.785156c0 14.335938-11.625 25.960938-25.960937 25.960938zm0 0" fill="#414952"/><path d="m375.167969 304.289062h-119.523438v102.710938h119.519531c14.339844 0 25.964844-11.625 25.964844-25.960938v-50.785156c0-14.339844-11.625-25.964844-25.960937-25.964844zm0 0" fill="#333940"/><path d="m117.667969 389.882812c0 8.082032 1.542969 13.058594 3.234375 17.117188h14.746094c-.40625-.96875-.816407-1.882812-1.21875-2.773438-1.820313-4.042968-3.261719-7.238281-3.261719-14.34375 0-7.109374 1.441406-10.304687 3.261719-14.347656 2.089843-4.632812 4.457031-9.882812 4.457031-19.894531s-2.367188-15.261719-4.457031-19.894531c-1.820313-4.042969-3.261719-7.234375-3.261719-14.34375 0-7.105469 1.441406-10.300782 3.261719-14.34375.402343-.886719.808593-1.804688 1.210937-2.769532h-14.738281c-1.691406 4.054688-3.234375 9.035157-3.234375 17.113282 0 10.011718 2.363281 15.261718 4.453125 19.894531 1.820312 4.042969 3.261718 7.234375 3.261718 14.34375 0 7.105469-1.4375 10.300781-3.261718 14.34375-2.089844 4.636719-4.453125 9.886719-4.453125 19.898437zm0 0" fill="#636978"/><path d="m181.945312 404.226562c-1.820312-4.042968-3.261718-7.234374-3.261718-14.34375 0-7.109374 1.4375-10.304687 3.261718-14.347656 2.089844-4.632812 4.453126-9.882812 4.453126-19.894531 0-10.007813-2.363282-15.257813-4.453126-19.890625-1.820312-4.042969-3.261718-7.238281-3.261718-14.34375 0-7.109375 1.4375-10.300781 3.261718-14.34375.402344-.890625.808594-1.808594 1.210938-2.773438h-14.738281c-1.695313 4.058594-3.234375 9.035157-3.234375 17.117188 0 10.007812 2.363281 15.257812 4.453125 19.890625 1.820312 4.042969 3.261719 7.234375 3.261719 14.34375s-1.4375 10.300781-3.261719 14.34375c-2.089844 4.632813-4.453125 9.882813-4.453125 19.894531 0 8.085938 1.542968 13.0625 3.234375 17.117188h14.742187c-.398437-.960938-.8125-1.878906-1.214844-2.769532zm0 0" fill="#636978"/><path d="m368.746094 321.40625c0-7.109375 1.441406-10.300781 3.261718-14.34375.402344-.890625.808594-1.808594 1.210938-2.773438h-14.738281c-1.695313 4.058594-3.234375 9.035157-3.234375 17.117188 0 10.007812 2.363281 15.257812 4.453125 19.890625 1.820312 4.042969 3.261719 7.234375 3.261719 14.34375s-1.4375 10.300781-3.261719 14.34375c-2.089844 4.632813-4.453125 9.882813-4.453125 19.894531 0 8.085938 1.542968 13.0625 3.234375 17.117188h14.746093c-.40625-.964844-.816406-1.878906-1.21875-2.769532-1.820312-4.042968-3.261718-7.238281-3.261718-14.347656s1.441406-10.300781 3.261718-14.347656c2.089844-4.628906 4.457032-9.882812 4.457032-19.890625 0-10.011719-2.367188-15.261719-4.457032-19.894531-1.820312-4.039063-3.261718-7.234375-3.261718-14.339844zm0 0" fill="#555a66"/><path d="m324.492188 404.226562c-1.820313-4.042968-3.261719-7.234374-3.261719-14.34375 0-7.109374 1.441406-10.304687 3.261719-14.347656 2.089843-4.632812 4.453124-9.882812 4.453124-19.894531 0-10.007813-2.363281-15.257813-4.453124-19.890625-1.820313-4.042969-3.261719-7.238281-3.261719-14.34375 0-7.109375 1.441406-10.300781 3.261719-14.34375.402343-.890625.808593-1.808594 1.210937-2.773438h-14.738281c-1.695313 4.058594-3.234375 9.035157-3.234375 17.117188 0 10.007812 2.363281 15.257812 4.453125 19.890625 1.820312 4.042969 3.261718 7.234375 3.261718 14.34375s-1.4375 10.300781-3.261718 14.34375c-2.089844 4.632813-4.453125 9.882813-4.453125 19.894531 0 8.085938 1.542969 13.0625 3.234375 17.117188h14.746094c-.40625-.960938-.816407-1.878906-1.21875-2.769532zm0 0" fill="#555a66"/><path d="m229.460938 404.226562c-1.820313-4.042968-3.261719-7.234374-3.261719-14.34375 0-7.109374 1.441406-10.304687 3.261719-14.347656 2.089843-4.632812 4.453124-9.882812 4.453124-19.894531 0-10.007813-2.363281-15.257813-4.453124-19.890625-1.820313-4.042969-3.261719-7.238281-3.261719-14.34375 0-7.109375 1.441406-10.300781 3.261719-14.34375.402343-.890625.808593-1.808594 1.210937-2.773438h-14.738281c-1.695313 4.058594-3.234375 9.035157-3.234375 17.117188 0 10.007812 2.363281 15.257812 4.453125 19.890625 1.820312 4.042969 3.261718 7.234375 3.261718 14.34375s-1.4375 10.300781-3.261718 14.34375c-2.089844 4.632813-4.453125 9.882813-4.453125 19.894531 0 8.085938 1.542969 13.0625 3.234375 17.117188h14.746094c-.40625-.960938-.816407-1.878906-1.21875-2.769532zm0 0" fill="#636978"/><path d="m276.976562 404.226562c-1.820312-4.042968-3.261718-7.234374-3.261718-14.34375 0-7.109374 1.4375-10.304687 3.261718-14.347656 2.089844-4.632812 4.453126-9.882812 4.453126-19.894531 0-10.007813-2.363282-15.257813-4.453126-19.890625-1.820312-4.042969-3.261718-7.238281-3.261718-14.34375 0-7.109375 1.4375-10.300781 3.261718-14.34375.402344-.890625.808594-1.808594 1.210938-2.773438h-14.738281c-1.695313 4.058594-3.234375 9.035157-3.234375 17.117188 0 10.007812 2.363281 15.257812 4.453125 19.890625 1.820312 4.042969 3.261719 7.234375 3.261719 14.34375s-1.441407 10.300781-3.261719 14.34375c-2.089844 4.632813-4.453125 9.882813-4.453125 19.894531 0 8.085938 1.542968 13.0625 3.234375 17.117188h14.742187c-.402344-.960938-.8125-1.878906-1.214844-2.769532zm0 0" fill="#555a66"/><path d="m150.152344 201.582031h256.207031c14.335937 0 25.960937 11.621094 25.960937 25.960938v50.785156c0 14.335937-11.625 25.960937-25.960937 25.960937h-256.207031c-14.335938 0-25.960938-11.625-25.960938-25.960937v-50.785156c0-14.339844 11.625-25.960938 25.960938-25.960938zm0 0" fill="#555a66"/><path d="m406.359375 201.582031h-150.714844v102.707031h150.714844c14.335937 0 25.960937-11.625 25.960937-25.960937v-50.785156c0-14.339844-11.625-25.960938-25.960937-25.960938zm0 0" fill="#414952"/><path d="m407.652344 218.699219c0-8.082031-1.542969-13.0625-3.234375-17.117188h-14.742188c.402344.964844.8125 1.878907 1.214844 2.769531 1.820313 4.042969 3.261719 7.238282 3.261719 14.347657s-1.4375 10.304687-3.261719 14.347656c-2.089844 4.632813-4.453125 9.882813-4.453125 19.894531 0 10.007813 2.363281 15.257813 4.453125 19.890625 1.820313 4.042969 3.261719 7.234375 3.261719 14.34375s-1.4375 10.300781-3.261719 14.34375c-.402344.886719-.808594 1.808594-1.210937 2.769531h14.738281c1.695312-4.054687 3.234375-9.03125 3.234375-17.113281 0-10.011719-2.363282-15.261719-4.453125-19.890625-1.820313-4.042968-3.261719-7.238281-3.261719-14.34375 0-7.109375 1.441406-10.304687 3.261719-14.347656 2.089843-4.632812 4.453125-9.882812 4.453125-19.894531zm0 0" fill="#636978"/><path d="m343.375 204.351562c1.820312 4.042969 3.261719 7.238282 3.261719 14.347657s-1.441407 10.304687-3.261719 14.347656c-2.089844 4.632813-4.453125 9.882813-4.453125 19.894531 0 10.007813 2.363281 15.257813 4.453125 19.890625 1.820312 4.042969 3.261719 7.234375 3.261719 14.34375s-1.441407 10.300781-3.261719 14.34375c-.402344.886719-.808594 1.808594-1.210938 2.769531h14.738282c1.695312-4.054687 3.234375-9.03125 3.234375-17.113281 0-10.011719-2.363281-15.261719-4.453125-19.890625-1.820313-4.042968-3.261719-7.238281-3.261719-14.34375 0-7.109375 1.4375-10.304687 3.261719-14.347656 2.089844-4.628906 4.453125-9.882812 4.453125-19.894531 0-8.082031-1.542969-13.058594-3.234375-17.117188h-14.746094c.40625.964844.816406 1.878907 1.21875 2.769531zm0 0" fill="#636978"/><path d="m156.574219 287.175781c0 7.105469-1.4375 10.300781-3.261719 14.34375-.402344.886719-.808594 1.804688-1.210938 2.769531h14.738282c1.695312-4.054687 3.234375-9.03125 3.234375-17.113281 0-10.011719-2.363281-15.261719-4.453125-19.894531-1.820313-4.042969-3.261719-7.234375-3.261719-14.339844 0-7.109375 1.441406-10.304687 3.261719-14.347656 2.089844-4.632812 4.453125-9.882812 4.453125-19.894531 0-8.082031-1.542969-13.0625-3.234375-17.117188h-14.742188c.402344.964844.8125 1.882813 1.214844 2.773438 1.820312 4.042969 3.261719 7.234375 3.261719 14.34375s-1.4375 10.304687-3.261719 14.347656c-2.089844 4.632813-4.453125 9.882813-4.453125 19.894531 0 10.007813 2.363281 15.257813 4.453125 19.890625 1.824219 4.042969 3.261719 7.234375 3.261719 14.34375zm0 0" fill="#707789"/><path d="m200.828125 204.351562c1.820313 4.042969 3.261719 7.238282 3.261719 14.347657s-1.4375 10.304687-3.261719 14.347656c-2.089844 4.632813-4.453125 9.882813-4.453125 19.894531 0 10.007813 2.363281 15.257813 4.453125 19.890625 1.820313 4.042969 3.261719 7.234375 3.261719 14.34375s-1.4375 10.300781-3.261719 14.34375c-.398437.886719-.808594 1.808594-1.210937 2.769531h14.738281c1.695312-4.054687 3.238281-9.03125 3.238281-17.113281 0-10.011719-2.367188-15.261719-4.457031-19.890625-1.820313-4.042968-3.261719-7.238281-3.261719-14.34375 0-7.109375 1.441406-10.304687 3.261719-14.347656 2.089843-4.628906 4.457031-9.882812 4.457031-19.894531 0-8.082031-1.542969-13.058594-3.238281-17.117188h-14.742188c.402344.964844.8125 1.878907 1.214844 2.769531zm0 0" fill="#707789"/><path d="m295.859375 204.351562c1.820313 4.042969 3.261719 7.238282 3.261719 14.347657s-1.4375 10.304687-3.261719 14.347656c-2.089844 4.632813-4.453125 9.882813-4.453125 19.894531 0 10.007813 2.363281 15.257813 4.453125 19.890625 1.820313 4.042969 3.261719 7.234375 3.261719 14.34375s-1.4375 10.300781-3.261719 14.34375c-.398437.886719-.808594 1.808594-1.210937 2.769531h14.738281c1.695312-4.054687 3.234375-9.03125 3.234375-17.113281 0-10.011719-2.363282-15.261719-4.453125-19.890625-1.820313-4.042968-3.261719-7.238281-3.261719-14.34375 0-7.109375 1.441406-10.304687 3.261719-14.347656 2.089843-4.628906 4.453125-9.882812 4.453125-19.894531 0-8.082031-1.542969-13.058594-3.234375-17.117188h-14.742188c.402344.964844.8125 1.878907 1.214844 2.769531zm0 0" fill="#636978"/><path d="m248.34375 204.351562c1.820312 4.042969 3.261719 7.238282 3.261719 14.347657s-1.441407 10.304687-3.261719 14.347656c-2.089844 4.632813-4.453125 9.882813-4.453125 19.894531 0 10.007813 2.363281 15.257813 4.453125 19.890625 1.820312 4.042969 3.261719 7.234375 3.261719 14.34375s-1.441407 10.300781-3.261719 14.34375c-.402344.886719-.808594 1.808594-1.210938 2.769531h14.738282c1.695312-4.054687 3.234375-9.03125 3.234375-17.113281 0-10.011719-2.363281-15.261719-4.453125-19.890625-1.820313-4.042968-3.261719-7.238281-3.261719-14.34375 0-7.109375 1.4375-10.304687 3.261719-14.347656 2.089844-4.628906 4.453125-9.882812 4.453125-19.894531 0-8.082031-1.542969-13.058594-3.234375-17.117188h-14.742188c.402344.964844.8125 1.878907 1.214844 2.769531zm0 0" fill="#707789"/><path d="m257.390625 252.9375c0-7.109375 1.441406-10.300781 3.261719-14.34375 2.089844-4.632812 4.457031-9.882812 4.457031-19.894531 0-8.082031-1.542969-13.0625-3.238281-17.117188h-6.226563v102.707031h6.226563c1.695312-4.054687 3.238281-9.03125 3.238281-17.113281 0-10.011719-2.367187-15.261719-4.457031-19.894531-1.820313-4.042969-3.261719-7.234375-3.261719-14.34375zm0 0" fill="#636978"/><path d="m375.167969 201.582031h-256.203125c-14.339844 0-25.964844-11.625-25.964844-25.964843v-50.78125c0-14.339844 11.625-25.964844 25.964844-25.964844h256.203125c14.335937 0 25.960937 11.625 25.960937 25.964844v50.78125c0 14.339843-11.625 25.964843-25.960937 25.964843zm0 0" fill="#414952"/><path d="m375.167969 98.871094h-119.523438v102.707031h119.519531c14.339844 0 25.964844-11.621094 25.964844-25.960937v-50.785157c0-14.335937-11.625-25.960937-25.960937-25.960937zm0 0" fill="#333940"/><path d="m117.667969 184.460938c0 8.085937 1.542969 13.0625 3.234375 17.117187h14.746094c-.40625-.964844-.816407-1.878906-1.21875-2.769531-1.820313-4.042969-3.261719-7.238282-3.261719-14.347656 0-7.109376 1.441406-10.300782 3.261719-14.347657 2.089843-4.628906 4.457031-9.882812 4.457031-19.890625 0-10.011718-2.367188-15.261718-4.457031-19.894531-1.820313-4.042969-3.261719-7.234375-3.261719-14.34375 0-7.105469 1.441406-10.300781 3.261719-14.34375.402343-.886719.808593-1.804687 1.210937-2.769531h-14.738281c-1.691406 4.054687-3.234375 9.03125-3.234375 17.113281 0 10.011719 2.363281 15.261719 4.453125 19.894531 1.820312 4.042969 3.261718 7.234375 3.261718 14.339844 0 7.109375-1.4375 10.304688-3.261718 14.347656-2.089844 4.632813-4.453125 9.882813-4.453125 19.894532zm0 0" fill="#636978"/><path d="m181.945312 198.808594c-1.820312-4.042969-3.261718-7.238282-3.261718-14.34375 0-7.109375 1.4375-10.304688 3.261718-14.347656 2.089844-4.632813 4.453126-9.882813 4.453126-19.894532 0-10.011718-2.363282-15.261718-4.453126-19.894531-1.820312-4.042969-3.261718-7.234375-3.261718-14.34375 0-7.105469 1.4375-10.300781 3.261718-14.34375.402344-.886719.808594-1.804687 1.210938-2.769531h-14.738281c-1.695313 4.054687-3.234375 9.035156-3.234375 17.113281 0 10.011719 2.363281 15.261719 4.453125 19.894531 1.820312 4.042969 3.261719 7.234375 3.261719 14.34375 0 7.105469-1.4375 10.300782-3.261719 14.34375-2.089844 4.632813-4.453125 9.882813-4.453125 19.894532 0 8.082031 1.542968 13.0625 3.234375 17.117187h14.742187c-.398437-.964844-.8125-1.878906-1.214844-2.769531zm0 0" fill="#636978"/><path d="m368.746094 115.984375c0-7.105469 1.441406-10.300781 3.261718-14.34375.402344-.886719.808594-1.804687 1.210938-2.769531h-14.738281c-1.695313 4.054687-3.234375 9.035156-3.234375 17.113281 0 10.011719 2.363281 15.261719 4.453125 19.894531 1.820312 4.042969 3.261719 7.234375 3.261719 14.34375 0 7.105469-1.4375 10.300782-3.261719 14.34375-2.089844 4.632813-4.453125 9.882813-4.453125 19.894532 0 8.082031 1.542968 13.0625 3.234375 17.117187h14.746093c-.40625-.964844-.816406-1.878906-1.21875-2.769531-1.820312-4.042969-3.261718-7.238282-3.261718-14.347656 0-7.109376 1.441406-10.304688 3.261718-14.347657 2.089844-4.632812 4.457032-9.882812 4.457032-19.894531 0-10.007812-2.367188-15.257812-4.457032-19.890625-1.820312-4.042969-3.261718-7.234375-3.261718-14.34375zm0 0" fill="#555a66"/><path d="m324.492188 198.808594c-1.820313-4.042969-3.261719-7.238282-3.261719-14.34375 0-7.109375 1.441406-10.304688 3.261719-14.347656 2.089843-4.632813 4.453124-9.882813 4.453124-19.894532 0-10.011718-2.363281-15.261718-4.453124-19.894531-1.820313-4.042969-3.261719-7.234375-3.261719-14.34375 0-7.105469 1.441406-10.300781 3.261719-14.34375.402343-.886719.808593-1.804687 1.210937-2.769531h-14.738281c-1.695313 4.054687-3.234375 9.035156-3.234375 17.113281 0 10.011719 2.363281 15.261719 4.453125 19.894531 1.820312 4.042969 3.261718 7.234375 3.261718 14.34375 0 7.105469-1.4375 10.300782-3.261718 14.34375-2.089844 4.632813-4.453125 9.882813-4.453125 19.894532 0 8.082031 1.542969 13.0625 3.234375 17.117187h14.746094c-.40625-.964844-.816407-1.878906-1.21875-2.769531zm0 0" fill="#555a66"/><path d="m229.460938 198.808594c-1.820313-4.042969-3.261719-7.238282-3.261719-14.34375 0-7.109375 1.441406-10.304688 3.261719-14.347656 2.089843-4.632813 4.453124-9.882813 4.453124-19.894532 0-10.011718-2.363281-15.261718-4.453124-19.894531-1.820313-4.042969-3.261719-7.234375-3.261719-14.34375 0-7.105469 1.441406-10.300781 3.261719-14.34375.402343-.886719.808593-1.804687 1.210937-2.769531h-14.738281c-1.695313 4.054687-3.234375 9.035156-3.234375 17.113281 0 10.011719 2.363281 15.261719 4.453125 19.894531 1.820312 4.042969 3.261718 7.234375 3.261718 14.34375 0 7.105469-1.4375 10.300782-3.261718 14.34375-2.089844 4.632813-4.453125 9.882813-4.453125 19.894532 0 8.082031 1.542969 13.0625 3.234375 17.117187h14.746094c-.40625-.964844-.816407-1.878906-1.21875-2.769531zm0 0" fill="#636978"/><path d="m276.976562 198.808594c-1.820312-4.042969-3.261718-7.238282-3.261718-14.34375 0-7.109375 1.4375-10.304688 3.261718-14.347656 2.089844-4.632813 4.453126-9.882813 4.453126-19.894532 0-10.011718-2.363282-15.261718-4.453126-19.894531-1.820312-4.042969-3.261718-7.234375-3.261718-14.34375 0-7.105469 1.4375-10.300781 3.261718-14.34375.402344-.886719.808594-1.804687 1.210938-2.769531h-14.738281c-1.695313 4.054687-3.234375 9.035156-3.234375 17.113281 0 10.011719 2.363281 15.261719 4.453125 19.894531 1.820312 4.042969 3.261719 7.234375 3.261719 14.34375 0 7.105469-1.441407 10.300782-3.261719 14.34375-2.089844 4.632813-4.453125 9.882813-4.453125 19.894532 0 8.082031 1.542968 13.0625 3.234375 17.117187h14.742187c-.402344-.964844-.8125-1.878906-1.214844-2.769531zm0 0" fill="#555a66"/></svg>