<svg height="512pt" viewBox="0 0 512 512" width="512pt" xmlns="http://www.w3.org/2000/svg"><path d="m256 0-128 256 128 256c141.386719 0 256-114.613281 256-256s-114.613281-256-256-256zm0 0"/><path d="m0 256c0 141.386719 114.613281 256 256 256v-512c-141.386719 0-256 114.613281-256 256zm0 0" fill="#353a3d"/><path d="m256 71-92.5 185 92.5 185c102.171875 0 185-82.828125 185-185s-82.828125-185-185-185zm0 0" fill="#4f575b"/><path d="m71 256c0 102.171875 82.828125 185 185 185v-370c-102.171875 0-185 82.828125-185 185zm0 0" fill="#697276"/><path d="m256 131-62.5 125 62.5 125c69.035156 0 125-55.964844 125-125s-55.964844-125-125-125zm0 0" fill="#838e92"/><path d="m131 256c0 69.035156 55.964844 125 125 125v-250c-69.035156 0-125 55.964844-125 125zm0 0" fill="#9da9ad"/><path d="m256 161-47.5 95 47.5 95c52.46875 0 95-42.53125 95-95s-42.53125-95-95-95zm0 0" fill="#697276"/><path d="m161 256c0 52.46875 42.53125 95 95 95v-190c-52.46875 0-95 42.53125-95 95zm0 0" fill="#838e92"/><path d="m316.402344 271h49.597656v-30h-49.398438c-6.828124-.636719-13.3125-4.679688-16.613281-10.398438-3.683593-6.378906-3.976562-13.238281-.839843-19.335937l24.839843-43.027344-25.976562-15-24.65625 42.703125c-4.019531 5.738282-10.613281 9.296875-17.296875 9.296875-.019532 0-.039063 0-.058594-.003906v101.496094c6.578125 0 13.320312 3.617187 17.3125 9.25l24.699219 42.78125 25.980469-15-24.652344-42.695313c-2.914063-6.269531-2.675782-13.972656.652344-19.734375 3.671874-6.363281 9.496093-10.027343 16.410156-10.332031zm0 0" fill="#838e92"/><path d="m238.707031 196.066406-24.714843-42.828125-25.980469 15 24.839843 43.027344c3.117188 6.058594 2.835938 13.101563-.785156 19.371094-3.289062 5.695312-9.792968 9.726562-16.667968 10.363281h-49.398438v30h49.59375c6.839844.304688 12.839844 4.070312 16.472656 10.363281 3.320313 5.75 3.527344 13.484375.554688 19.789063l-24.609375 42.609375 25.976562 15 24.84375-43.027344c3.691407-5.726563 9.933594-9.003906 17.167969-9.003906v-101.496094c-7.34375-.015625-13.644531-3.355469-17.292969-9.167969zm0 0" fill="#9da9ad"/><path d="m274.007812 245.601562c-2.238281-3.878906-3.9375-7.949218-5.097656-12.109374-4.183594 1.132812-8.503906 1.746093-12.855468 1.746093-.019532 0-.035157-.003906-.054688-.003906l-10 20.765625 10 20.730469c4.414062 0 8.792969.628906 13.03125 1.792969 1.117188-4.253907 2.769531-8.363282 4.976562-12.191407 2.238282-3.878906 4.917969-7.375 7.941407-10.453125-3.070313-3.0625-5.761719-6.5-7.941407-10.277344zm0 0" fill="#353a3d"/><path d="m243.109375 233.625c-1.152344 4.128906-2.839844 8.160156-5.0625 12.011719-2.175781 3.769531-4.867187 7.207031-7.945313 10.265625 3.027344 3.082031 5.707032 6.585937 7.945313 10.464844 2.179687 3.769531 3.808594 7.820312 4.921875 12.011718 4.179688-1.078125 8.550781-1.648437 13.03125-1.648437v-41.492188c-4.429688-.007812-8.753906-.558593-12.890625-1.613281zm0 0" fill="#4f575b"/></svg>